<?xml version="1.0" encoding="utf-8"?>
<!-- Generator: Adobe Illustrator 16.0.0, SVG Export Plug-In . SVG Version: 6.00 Build 0)  -->
<!DOCTYPE svg PUBLIC "-//W3C//DTD SVG 1.1//EN" "http://www.w3.org/Graphics/SVG/1.1/DTD/svg11.dtd">
<svg version="1.1" id="Layer_1" xmlns="http://www.w3.org/2000/svg" xmlns:xlink="http://www.w3.org/1999/xlink" x="0px" y="0px"
	 width="40px" height="40px" viewBox="0 0 20 20" enable-background="new 0 0 20 20" xml:space="preserve">
<g id="Layer_2">
</g>
<g opacity="0.75">
	<path fill="#FFFFFF" d="M10.155,15.54l-0.744-0.734c1.054-1.137,1.59-2.648,1.59-4.259c0-1.607-0.536-3.12-1.59-4.258l0.75-0.714
		c0.659,0.714,1.047,1.232,1.396,2.16c0.336,0.896,0.487,1.842,0.487,2.812c0,0.973-0.132,1.897-0.469,2.792
		C11.227,14.266,10.816,14.827,10.155,15.54z"/>
	<path fill="#FFFFFF" d="M12.453,17.235l-0.773-0.87c0.728-0.784,1.291-1.7,1.674-2.722c0.369-0.985,0.498-2.026,0.498-3.097
		c0-1.069-0.129-2.11-0.498-3.097c-0.383-1.021-0.946-1.936-1.674-2.723l0.836-0.87c0.855,0.924,1.377,1.845,1.828,3.046
		C14.779,8.065,15,9.291,15,10.547s-0.221,2.482-0.656,3.643C13.893,15.391,13.309,16.311,12.453,17.235z"/>
	<path fill="#FFFFFF" d="M8.019,3.378L4.961,6.39H3.987v6.967h1.021l2.953,3.03l1.026-0.99V4.347L8.019,3.378z"/>
	<path fill="#FFFFFF" d="M1.962,6.376L1,7.333v5.021l0.96,1.027h1.015V6.376H1.962z"/>
	<path fill="#FFFFFF" d="M14.598,18.998l-0.773-0.87c0.728-0.784,1.939-2.767,2.322-3.785c0.371-0.984,0.705-2.726,0.705-3.796
		c0-1.067-0.463-2.966-0.834-3.953c-0.383-1.021-1.547-2.938-2.274-3.724L14.579,2c0.854,0.924,1.979,2.847,2.431,4.047
		c0.434,1.161,0.99,3.244,0.99,4.5s-0.427,3.18-0.861,4.339C16.688,16.089,15.453,18.075,14.598,18.998z"/>
</g>
<path opacity="0.65" fill="#FFFFFF" enable-background="new    " d="M11.557,8.737c0.281,0.749,0.426,1.534,0.469,2.338
	c0.01-0.176,0.02-0.35,0.02-0.528c0-0.97-0.15-1.916-0.486-2.812c-0.35-0.928-0.735-1.446-1.396-2.16l-0.75,0.714
	c0.166,0.18,0.298,0.385,0.439,0.583l0.311-0.295C10.82,7.291,11.208,7.809,11.557,8.737z"/>
<path opacity="0.65" fill="#FFFFFF" enable-background="new    " d="M14.344,7.907c0.377,1.005,0.583,2.062,0.635,3.141
	C14.984,10.882,15,10.716,15,10.547c0-1.257-0.221-2.483-0.656-3.643c-0.451-1.201-0.973-2.122-1.828-3.046l-0.836,0.87
	c0.157,0.171,0.305,0.353,0.448,0.535l0.388-0.403C13.371,5.785,13.893,6.706,14.344,7.907z"/>
<polygon opacity="0.65" fill="#FFFFFF" enable-background="new    " points="4.961,6.39 3.987,6.39 3.987,7.391 4.961,7.391
	8.019,4.38 8.988,5.349 8.988,4.347 8.019,3.378 "/>
<polygon opacity="0.65" fill="#FFFFFF" enable-background="new    " points="1,7.333 1,8.334 1.962,7.378 2.975,7.378 2.975,6.376
	1.962,6.376 "/>
<path opacity="0.65" fill="#FFFFFF" enable-background="new    " d="M17.009,7.049c0.386,1.027,0.863,2.774,0.97,4.034
	C17.991,10.896,18,10.714,18,10.547c0-1.257-0.557-3.339-0.991-4.5C16.559,4.847,15.434,2.924,14.578,2l-0.836,0.87
	c0.134,0.145,0.283,0.335,0.439,0.544l0.396-0.412C15.434,3.925,16.559,5.849,17.009,7.049z"/>
<path opacity="0.25" enable-background="new    " d="M12.025,11.075c-0.043,0.778-0.176,1.532-0.45,2.264
	c-0.349,0.927-0.759,1.488-1.42,2.201l-0.311-0.308c-0.139,0.193-0.268,0.397-0.433,0.573l0.744,0.735
	c0.662-0.714,1.072-1.273,1.42-2.2c0.337-0.896,0.469-1.821,0.469-2.792C12.044,11.389,12.033,11.231,12.025,11.075z"/>
<path opacity="0.25" enable-background="new    " d="M15,11.549c0-0.168-0.016-0.335-0.021-0.501
	c-0.052,1.08-0.258,2.137-0.635,3.142c-0.451,1.201-1.035,2.121-1.891,3.046l-0.342-0.385c-0.139,0.178-0.279,0.352-0.434,0.517
	l0.774,0.87c0.854-0.925,1.438-1.845,1.891-3.046C14.779,14.031,15,12.805,15,11.549z"/>
<polygon opacity="0.25" enable-background="new    " points="5.009,13.356 3.987,13.356 3.987,14.358 5.009,14.358 7.962,17.389
	8.988,16.398 8.988,15.396 7.962,16.387 "/>
<polygon opacity="0.25" enable-background="new    " points="1,12.354 1,13.356 1.96,14.384 2.975,14.384 2.975,13.382 1.96,13.382
	"/>
<path opacity="0.25" enable-background="new    " d="M17.139,14.888c-0.451,1.201-1.686,3.189-2.541,4.11l-0.35-0.393
	c-0.15,0.201-0.297,0.387-0.425,0.524L14.598,20c0.855-0.924,2.09-2.909,2.541-4.11C17.573,14.728,18,12.805,18,11.549
	c0-0.145-0.009-0.304-0.021-0.466C17.885,12.304,17.516,13.883,17.139,14.888z"/>
</svg>
