<?xml version="1.0" encoding="utf-8"?>
<!-- Generator: Adobe Illustrator 16.0.0, SVG Export Plug-In . SVG Version: 6.00 Build 0)  -->
<!DOCTYPE svg PUBLIC "-//W3C//DTD SVG 1.1//EN" "http://www.w3.org/Graphics/SVG/1.1/DTD/svg11.dtd">
<svg version="1.1" id="Layer_1" xmlns="http://www.w3.org/2000/svg" xmlns:xlink="http://www.w3.org/1999/xlink" x="0px" y="0px"
	 width="40px" height="40px" viewBox="0 0 20 20" enable-background="new 0 0 20 20" xml:space="preserve">
<g id="Layer_2">
</g>
<path opacity="0.75" fill="#FFFFFF" enable-background="new    " d="M18.03,3l-3.063,3.009h-0.978v6.963h1.022l2.957,3.027
	l1.027-0.989V3.968L18.03,3z"/>
<path opacity="0.75" fill="#FFFFFF" enable-background="new    " d="M11.964,5.996L11,6.952v5.019l0.962,1.026h1.016V5.996H11.964z"
	/>
<polygon opacity="0.65" fill="#FFFFFF" enable-background="new    " points="14.967,6.009 13.99,6.009 13.99,7.01 14.967,7.01
	18.03,4.001 19,4.969 19,3.968 18.03,3 "/>
<polygon opacity="0.65" fill="#FFFFFF" enable-background="new    " points="11,6.952 11,7.952 11.964,6.997 12.978,6.997
	12.978,5.996 11.964,5.996 "/>
<polygon opacity="0.25" enable-background="new    " points="15.016,12.972 13.99,12.972 13.99,13.972 15.016,13.972 17.973,17
	19,16.011 19,15.01 17.973,15.999 "/>
<polygon opacity="0.25" enable-background="new    " points="11,11.969 11,12.97 11.962,13.997 12.978,13.997 12.978,12.997
	11.962,12.997 "/>
</svg>
