<?xml version="1.0" encoding="utf-8"?>
<!-- Generator: Adobe Illustrator 16.0.0, SVG Export Plug-In . SVG Version: 6.00 Build 0)  -->
<!DOCTYPE svg PUBLIC "-//W3C//DTD SVG 1.1//EN" "http://www.w3.org/Graphics/SVG/1.1/DTD/svg11.dtd">
<svg version="1.1" id="Layer_1" xmlns="http://www.w3.org/2000/svg" xmlns:xlink="http://www.w3.org/1999/xlink" x="0px" y="0px"
	 width="20px" height="20px" viewBox="0 0 20 20" enable-background="new 0 0 20 20" xml:space="preserve">
<g id="Layer_2">
</g>
<path opacity="0.75" fill="#FFFFFF" enable-background="new    " d="M17.605,1H2.395C0.991,1,0,1.956,0,3.4v13.203
	c0,1.331,0.916,2.398,2.394,2.398h15.212c1.441,0,2.395-1.18,2.395-2.398V3.4C20.002,1.994,18.973,1,17.605,1z M7.085,15.17
	l1.599,1.604c0.044,0.043,0.056,0.107,0.032,0.165c-0.023,0.057-0.078,0.095-0.141,0.095H2.989v-5.256
	c0-0.062,0.037-0.115,0.094-0.14c0.057-0.023,0.121-0.011,0.164,0.032l1.399,1.401c0.078,0.077,0.205,0.077,0.281,0l3.536-3.573
	l1.976,2.012L7.085,14.89C7.007,14.967,7.007,15.093,7.085,15.17z M16.963,8.691c0,0.062-0.037,0.118-0.094,0.142
	s-0.123,0.011-0.166-0.033l-1.561-1.695c-0.078-0.077-0.205-0.077-0.281,0l-3.443,3.393L9.481,8.486l3.365-3.31
	c0.078-0.077,0.078-0.202,0-0.281l-1.611-1.604c-0.043-0.043-0.057-0.107-0.031-0.165c0.023-0.057,0.08-0.094,0.141-0.094h5.621
	v5.658H16.963z"/>
<path opacity="0.65" fill="#FFFFFF" enable-background="new    " d="M17.602,1.002H2.4C0.993,1.002,0,1.954,0,3.398v1
	c0-1.444,0.993-2.396,2.4-2.396h15.2c1.371,0,2.4,0.99,2.4,2.396v-1C20,1.992,18.971,1.002,17.602,1.002z"/>
<path opacity="0.25" enable-background="new    " d="M17.586,19H2.416c-1.479,0-2.396-1.068-2.396-2.399v1
	C0.02,18.933,0.936,20,2.416,20h15.17c1.441,0,2.396-1.181,2.396-2.399v-1C19.982,17.819,19.027,19,17.586,19z"/>
<path opacity="0.65" fill="#FFFFFF" enable-background="new    " d="M2.975,18.034h5.598c0.062,0,0.117-0.037,0.141-0.095
	c0.024-0.057,0.012-0.121-0.033-0.166l-0.739-0.739H2.975V18.034z"/>
<path opacity="0.65" fill="#FFFFFF" enable-background="new    " d="M16.715,8.8L15.15,7.105c-0.078-0.077-0.205-0.077-0.281,0
	l-3.449,3.393L9.975,9.001L9.479,9.487l1.941,2.011l3.449-3.393c0.076-0.077,0.203-0.077,0.281,0L16.715,9.8
	c0.043,0.044,0.109,0.057,0.166,0.033s0.094-0.079,0.094-0.141v-1c0,0.062-0.037,0.117-0.094,0.141S16.758,8.844,16.715,8.8z"/>
<path opacity="0.65" fill="#FFFFFF" enable-background="new    " d="M7.078,15.171l0.358,0.358l3.001-3.019l-0.494-0.503
	l-2.865,2.883C7,14.968,7,15.094,7.078,15.171z"/>
</svg>
