<?xml version="1.0" encoding="utf-8"?>
<!-- Generator: Adobe Illustrator 16.0.0, SVG Export Plug-In . SVG Version: 6.00 Build 0)  -->
<!DOCTYPE svg PUBLIC "-//W3C//DTD SVG 1.1//EN" "http://www.w3.org/Graphics/SVG/1.1/DTD/svg11.dtd">
<svg version="1.1" id="Layer_1" xmlns="http://www.w3.org/2000/svg" xmlns:xlink="http://www.w3.org/1999/xlink" x="0px" y="0px"
	 width="48px" height="48px" viewBox="-1.5 22.5 48 48" enable-background="new -1.5 22.5 48 48" xml:space="preserve">
<g id="Layer_2">
</g>
<g opacity="0.75">
	<path fill="#FFFFFF" d="M44.104,44.835c0.243,0.121,0.396,0.373,0.396,0.649s-0.153,0.528-0.396,0.649l-44.59,22.262
		c-0.219,0.109-0.477,0.096-0.683-0.036S-1.5,67.995-1.5,67.746V23.223c0-0.249,0.125-0.48,0.331-0.613
		c0.206-0.132,0.464-0.146,0.683-0.036L44.104,44.835z"/>
</g>
<path opacity="0.65" fill="#FFFFFF" d="M-0.486,23.573l44.59,22.262c0.075,0.037,0.138,0.091,0.193,0.149
	c0.126-0.133,0.203-0.309,0.203-0.5c0-0.276-0.153-0.528-0.396-0.649l-44.59-22.262c-0.219-0.109-0.477-0.096-0.683,0.036
	C-1.375,22.742-1.5,22.974-1.5,23.223v1c0-0.249,0.125-0.48,0.331-0.613C-0.963,23.478-0.705,23.464-0.486,23.573z"/>
<path opacity="0.25" d="M44.104,46.134l-44.59,22.262c-0.219,0.109-0.477,0.096-0.683-0.036S-1.5,67.995-1.5,67.746v1
	c0,0.249,0.125,0.481,0.331,0.613s0.464,0.146,0.683,0.036l44.59-22.262c0.243-0.121,0.396-0.373,0.396-0.649
	c0-0.191-0.077-0.367-0.203-0.5C44.241,46.043,44.179,46.097,44.104,46.134z"/>
</svg>
