<?xml version="1.0" encoding="utf-8"?>
<!-- Generator: Adobe Illustrator 16.0.0, SVG Export Plug-In . SVG Version: 6.00 Build 0)  -->
<!DOCTYPE svg PUBLIC "-//W3C//DTD SVG 1.1//EN" "http://www.w3.org/Graphics/SVG/1.1/DTD/svg11.dtd">
<svg version="1.1" id="Layer_1" xmlns="http://www.w3.org/2000/svg" xmlns:xlink="http://www.w3.org/1999/xlink" x="0px" y="0px"
	 width="20px" height="20px" viewBox="0 0 20 20" enable-background="new 0 0 20 20" xml:space="preserve">
<g id="Layer_2">
</g>
<path opacity="0.25" fill="#FFFFFF" enable-background="new    " d="M17.602,1H2.4C0.993,1,0,1.952,0,3.396V16.6
	C0,17.932,0.918,19,2.4,19H17.6c1.444,0,2.4-1.182,2.4-2.4V3.396C20,1.99,18.971,1,17.602,1z M8.298,13.686
	c-0.469,0.219-1.062,0.33-1.778,0.33c-1.215,0-2.134-0.332-2.756-0.994c-0.621-0.662-0.933-1.645-0.933-2.944
	c0-1.269,0.302-2.255,0.903-2.963c0.603-0.708,1.507-1.062,2.713-1.062c0.646,0,1.221,0.105,1.725,0.316
	c0.505,0.21,0.889,0.534,1.151,0.976L7.945,8.325c-0.168-0.224-0.362-0.39-0.588-0.498C7.133,7.719,6.844,7.665,6.49,7.665
	c-0.633,0-1.081,0.194-1.35,0.581c-0.269,0.388-0.401,0.988-0.401,1.801s0.138,1.407,0.413,1.783
	c0.273,0.376,0.744,0.562,1.408,0.562c0.287,0,0.551-0.041,0.789-0.121c0.239-0.082,0.467-0.262,0.683-0.539l1.399,0.982
	C9.145,13.143,8.768,13.465,8.298,13.686z M16.448,13.686c-0.47,0.219-1.062,0.33-1.779,0.33c-1.215,0-2.133-0.332-2.755-0.994
	c-0.621-0.662-0.934-1.645-0.934-2.944c0-1.269,0.303-2.255,0.904-2.963s1.508-1.062,2.713-1.062c0.646,0,1.221,0.105,1.726,0.316
	c0.504,0.21,0.888,0.534,1.151,0.976l-1.379,0.982c-0.166-0.225-0.363-0.391-0.588-0.498s-0.515-0.162-0.867-0.162
	c-0.632,0-1.082,0.193-1.35,0.581s-0.4,0.987-0.4,1.801s0.137,1.407,0.411,1.783c0.275,0.376,0.745,0.563,1.41,0.563
	c0.286,0,0.55-0.041,0.789-0.123c0.237-0.08,0.466-0.261,0.683-0.537l1.397,0.981C17.295,13.143,16.917,13.465,16.448,13.686z"/>
<path opacity="0.25" fill="#FFFFFF" enable-background="new    " d="M17.602,1H2.4C0.993,1,0,1.952,0,3.396v1C0,2.952,0.993,2,2.4,2
	H17.6C18.971,2,20,2.99,20,4.396v-1C20,1.99,18.971,1,17.602,1z"/>
<path opacity="0.25" fill="#FFFFFF" enable-background="new    " d="M15.509,7.827c-0.225-0.108-0.515-0.162-0.868-0.162
	c-0.631,0-1.08,0.194-1.349,0.581c-0.269,0.388-0.401,0.988-0.401,1.801c0,0.176,0.01,0.338,0.022,0.494
	c0.046-0.559,0.171-0.993,0.379-1.294c0.269-0.388,0.718-0.581,1.349-0.581c0.354,0,0.645,0.055,0.868,0.162
	c0.226,0.107,0.421,0.273,0.589,0.498l1.377-0.982c-0.144-0.24-0.33-0.439-0.545-0.611l-0.832,0.594
	C15.93,8.102,15.732,7.936,15.509,7.827z"/>
<path opacity="0.25" fill="#FFFFFF" enable-background="new    " d="M7.357,7.827C7.133,7.719,6.844,7.665,6.49,7.665
	c-0.633,0-1.081,0.194-1.35,0.581c-0.269,0.388-0.401,0.988-0.401,1.801c0,0.176,0.009,0.337,0.021,0.493
	c0.048-0.558,0.171-0.992,0.38-1.293c0.269-0.388,0.717-0.581,1.35-0.581c0.354,0,0.643,0.055,0.867,0.162
	c0.226,0.107,0.42,0.273,0.588,0.498l1.378-0.982c-0.144-0.24-0.33-0.439-0.546-0.611L7.945,8.325
	C7.777,8.102,7.583,7.936,7.357,7.827z"/>
<path opacity="0.25" fill="#FFFFFF" enable-background="new    " d="M6.52,14.016c-1.215,0-2.134-0.332-2.756-0.994
	c-0.537-0.572-0.828-1.397-0.899-2.447c-0.013,0.167-0.032,0.324-0.032,0.502c0,1.301,0.311,2.281,0.934,2.943
	c0.621,0.664,1.539,0.994,2.754,0.994c0.719,0,1.312-0.109,1.779-0.33c0.469-0.22,0.848-0.543,1.135-0.969l-0.564-0.396
	C8.695,13.459,8.51,13.586,8.3,13.684C7.829,13.904,7.236,14.016,6.52,14.016z"/>
<path opacity="0.25" fill="#FFFFFF" enable-background="new    " d="M14.669,14.016c-1.215,0-2.133-0.332-2.755-0.994
	c-0.537-0.572-0.828-1.398-0.9-2.447c-0.012,0.167-0.031,0.324-0.031,0.503c0,1.301,0.312,2.282,0.933,2.944
	c0.622,0.662,1.54,0.994,2.755,0.994c0.719,0,1.311-0.111,1.779-0.33c0.468-0.221,0.847-0.543,1.134-0.97L17.02,13.32
	c-0.174,0.14-0.359,0.267-0.569,0.365C15.979,13.904,15.387,14.016,14.669,14.016z"/>
<path opacity="0.25" enable-background="new    " d="M17.6,19H2.4C0.918,19,0,17.932,0,16.6v1C0,18.932,0.918,20,2.4,20H17.6
	c1.444,0,2.4-1.182,2.4-2.4v-1C20,17.818,19.044,19,17.6,19z"/>
</svg>
